#!OML:ASF F:\VICON\USERDATA\INSTALL\rory3\rory3.ASF
:FULLY-SPECIFIED
:DEGREES
696
root 1.27267 15.859 6.28181 55.4397 36.0607 15.2243
lowerback 48.3325 -1.5672 13.0439
upperback 13.703 4.78644 0.387857
thorax -3.8595 2.94408 -7.40161
lowerneck -19.6907 -12.5696 -9.45061
upperneck 13.5574 -16.8545 13.0197
head 9.46067 -7.18583 3.39543
rclavicle -6.67916e-014 -1.15295e-013
rhumerus 62.4039 -20.4728 -75.6377
rradius 21.8332
rwrist 31.0051
rhand -48.1821 15.7361
rfingers 7.12502
rthumb -20.8434 -13.1642
lclavicle -6.67916e-014 -1.15295e-013
lhumerus -28.4661 -51.4951 93.0664
lradius 102.66
lwrist -20.3674
lhand -56.1943 9.14248
lfingers 7.12502
lthumb -28.5219 36.9874
rfemur -100.471 -26.106 35.2971
rtibia 68.4927
rfoot -15.6031 -5.55987
rtoes 3.17856
lfemur -87.6658 -5.23971 -31.0826
ltibia 48.5378
lfoot -0.888292 -20.4818
ltoes 9.88783
697
root 1.26363 15.8834 6.27641 55.2569 35.9624 15.1931
lowerback 48.2682 -1.48342 12.8941
upperback 13.6638 4.80896 0.411408
thorax -3.91016 2.94215 -7.32256
lowerneck -19.7399 -12.6046 -9.55803
upperneck 13.6287 -16.8996 13.1256
head 9.52049 -7.19582 3.43533
rclavicle -1.01778e-013 -2.70347e-014
rhumerus 61.9555 -20.2459 -75.5121
rradius 21.9561
rwrist 30.468
rhand -47.7262 14.682
rfingers 7.12502
rthumb -20.4053 -14.2658
lclavicle -1.01778e-013 -2.70347e-014
lhumerus -28.2747 -51.3876 93.1626
lradius 102.339
lwrist -20.0064
lhand -56.0518 8.5412
lfingers 7.12502
lthumb -28.3858 36.4089
rfemur -100.066 -26.0053 35.0412
rtibia 68.2141
rfoot -15.4798 -5.60962
rtoes 3.06557
lfemur -87.3608 -5.15224 -31.0723
ltibia 48.2591
lfoot -0.71804 -20.4181
ltoes 10.277
698
root 1.25542 15.9126 6.27255 54.9214 35.737 15.1043
lowerback 48.3292 -1.37786 12.7355
upperback 13.6162 4.85872 0.347502
thorax -3.98003 2.95685 -7.34304
lowerneck -19.7005 -12.6139 -9.50082
upperneck 13.683 -16.9394 13.1441
head 9.53443 -7.20787 3.42729
rclavicle -3.18055e-014 -2.22639e-014
rhumerus 61.3016 -20.045 -75.078
rradius 22.1351
rwrist 29.649
rhand -47.2522 14.1132
rfingers 7.12502
rthumb -19.9498 -14.8828
lclavicle -3.18055e-014 -2.22639e-014
lhumerus -28.137 -51.4656 93.2051
lradius 102.183
lwrist -19.6954
lhand -55.9162 9.17762
lfingers 7.12502
lthumb -28.2561 37.0669
rfemur -99.521 -25.8662 34.722
rtibia 67.9345
rfoot -15.3536 -5.61465
rtoes 2.87222
lfemur -86.9079 -4.92935 -31.1756
ltibia 47.963
lfoot -0.688206 -20.3639
ltoes 10.4825
699
root 1.24472 15.9371 6.26747 54.6021 35.6335 15.0026
lowerback 48.3677 -1.35789 12.6207
upperback 13.5002 4.84702 0.415722
thorax -4.13474 2.92557 -7.22026
lowerneck -19.3673 -12.6397 -10.058
upperneck 13.6041 -16.9109 13.5073
head 9.53522 -7.20443 3.65157
rclavicle 1.90833e-014 -1.35174e-014
rhumerus 60.4455 -19.4855 -74.1277
rradius 22.2951
rwrist 28.4692
rhand -46.8681 13.6763
rfingers 7.12502
rthumb -19.5804 -15.3576
lclavicle 1.90833e-014 -1.35174e-014
lhumerus -28.2172 -51.2775 93.5389
lradius 102.094
lwrist -19.5351
lhand -55.5669 10.7007
lfingers 7.12502
lthumb -27.9223 38.6447
rfemur -99.0245 -25.7573 34.5112
rtibia 67.6695
rfoot -15.2633 -5.60827
rtoes 3.01103
lfemur -86.5005 -4.79457 -31.0943
ltibia 47.6664
lfoot -0.676025 -20.2411
ltoes 10.2439
700
root 1.23343 15.9548 6.26083 54.4055 35.5991 15.017
lowerback 48.252 -1.31672 12.4024
upperback 13.512 4.80251 0.572757
thorax -4.148 2.88892 -6.9399
lowerneck -19.6689 -12.6844 -10.5433
upperneck 13.8389 -16.9028 13.7738
head 9.74137 -7.17471 3.80021
rclavicle -3.18055e-015 -3.89618e-014
rhumerus 60.2911 -19.0991 -74.2897
rradius 22.214
rwrist 28.4193
rhand -46.9441 13.2893
rfingers 7.12502
rthumb -19.6536 -15.7372
lclavicle -3.18055e-015 -3.89618e-014
lhumerus -27.8667 -50.9636 93.6262
lradius 101.891
lwrist -19.3442
lhand -55.2714 11.524
lfingers 7.12502
lthumb -27.6397 39.5136
rfemur -98.6025 -25.7058 34.228
rtibia 67.4214
rfoot -15.1327 -5.68385
rtoes 3.72416
lfemur -86.1539 -4.8321 -30.9369
ltibia 47.3647
lfoot -0.553104 -20.0551
ltoes 9.85987
701
root 1.22289 15.9753 6.25386 54.1571 35.6642 14.965
lowerback 48.1818 -1.27656 12.3447
upperback 13.4002 4.83193 0.69788
thorax -4.27276 2.87771 -6.79686
lowerneck -19.6675 -12.6851 -10.5951
upperneck 14.0148 -16.8754 13.6177
head 9.78605 -7.17149 3.75997
rclavicle 3.18055e-015 2.14687e-014
rhumerus 59.7416 -18.7861 -74.1513
rradius 22.2226
rwrist 27.9743
rhand -46.859 12.6882
rfingers 7.12502
rthumb -19.5718 -16.3467
lclavicle 3.18055e-015 2.14687e-014
lhumerus -27.9028 -50.8074 93.9894
lradius 101.573
lwrist -19.0929
lhand -55.0712 12.032
lfingers 7.12502
lthumb -27.4483 40.0522
rfemur -98.1246 -25.6495 34.0196
rtibia 67.1601
rfoot -14.9611 -5.84301
rtoes 4.21501
lfemur -85.793 -4.88514 -30.6583
ltibia 47.0684
lfoot -0.475299 -19.8321
ltoes 9.29715
702
root 1.21445 16.0025 6.2469 53.7443 35.8429 14.7114
lowerback 48.1637 -1.29438 12.5163
upperback 13.2762 4.89662 0.776766
thorax -4.3829 2.89139 -6.81637
lowerneck -19.4855 -12.7 -10.505
upperneck 13.9158 -16.8786 13.4026
head 9.68765 -7.20234 3.6815
rclavicle -3.49861e-014 -2.54444e-014
rhumerus 58.9381 -18.3324 -73.5818
rradius 22.2976
rwrist 27.0081
rhand -46.6311 11.8434
rfingers 7.12502
rthumb -19.3526 -17.2136
lclavicle -3.49861e-014 -2.54444e-014
lhumerus -27.9286 -50.753 94.2601
lradius 101.216
lwrist -18.8068
lhand -54.9894 12.4497
lfingers 7.12502
lthumb -27.3701 40.4822
rfemur -97.5515 -25.5693 34.0596
rtibia 66.8589
rfoot -14.8375 -5.94679
rtoes 4.06649
lfemur -85.3933 -4.88013 -30.1616
ltibia 46.7645
lfoot -0.508249 -19.5898
ltoes 8.56237
703
root 1.20658 16.0265 6.24178 53.3442 35.8345 14.5063
lowerback 48.1146 -1.2189 12.5227
upperback 13.1923 4.98593 0.849048
thorax -4.4602 2.91638 -6.77885
lowerneck -19.3019 -12.738 -10.59
upperneck 13.8044 -16.8922 13.3159
head 9.61595 -7.23462 3.6707
rclavicle 9.54166e-015 -8.74653e-015
rhumerus 58.1157 -17.9271 -72.944
rradius 22.3646
rwrist 26.3479
rhand -46.4995 11.202
rfingers 7.12502
rthumb -19.2261 -17.8677
lclavicle 9.54166e-015 -8.74653e-015
lhumerus -27.8469 -50.7277 94.4794
lradius 100.908
lwrist -18.5439
lhand -54.941 12.241
lfingers 7.12502
lthumb -27.3237 40.2809
rfemur -96.9692 -25.4386 33.9375
rtibia 66.5399
rfoot -14.6012 -6.01619
rtoes 3.74973
lfemur -84.9654 -4.78703 -29.877
ltibia 46.4346
lfoot -0.489477 -19.4182
ltoes 8.12025
704
root 1.19549 16.0508 6.23824 53.02 35.6969 14.4234
lowerback 48.1336 -1.05579 12.2684
upperback 13.0463 5.07829 0.967028
thorax -4.65245 2.92236 -6.58237
lowerneck -19.1841 -12.7834 -10.6621
upperneck 13.8605 -16.9241 13.1954
head 9.61175 -7.2671 3.63968
rclavicle -4.45278e-014 9.93923e-014
rhumerus 57.2938 -17.5449 -72.4369
rradius 22.4125
rwrist 26.0452
rhand -46.1608 10.9564
rfingers 7.12502
rthumb -18.9003 -18.1453
lclavicle -4.45278e-014 9.93923e-014
lhumerus -27.9136 -50.6055 94.8936
lradius 100.605
lwrist -18.3371
lhand -54.8476 12.7475
lfingers 7.12502
lthumb -27.2344 40.8014
rfemur -96.3533 -25.261 33.5552
rtibia 66.2128
rfoot -14.3916 -6.16602
rtoes 3.67897
lfemur -84.507 -4.63342 -29.8856
ltibia 46.0751
lfoot -0.479366 -19.3608
ltoes 7.61039
